# xmcd
#
# Track frame offsets:
#	225
#	62913
#	108698
#	163483
#	201907
#	249296
#
# Disc length: 4012 seconds
#
# Revision: 1
# Processed by: cddbd v1.4PL0 Copyright (c) Steve Scherf et al.
# Submitted via: EasyCDDAExtractor 5.0.7
#
DISCID=590fa906
DTITLE=Various Artist - In the mix 2
DYEAR=2000
DGENRE=Rhythmic Soul
TTITLE0=Slow Jam Mix
TTITLE1=Player Mix
TTITLE2=Diggity Mix
TTITLE3=Real R&B Mix
TTITLE4=M.I.B. Mix
TTITLE5=Classic Soul Mix
EXTD=
EXTT0=
EXTT1=
EXTT2=
EXTT3=
EXTT4=
EXTT5=
PLAYORDER=
